<svg width="48" height="48" viewBox="0 0 48 48" fill="none" xmlns="http://www.w3.org/2000/svg">
<rect x="0.5" y="0.5" width="47" height="47" rx="7.5" fill="#7849FF"/>
<rect x="0.5" y="0.5" width="47" height="47" rx="7.5" stroke="#7849FF"/>
<path d="M23.9981 18.0358C22.8189 18.0358 21.6661 18.3854 20.6856 19.0406C19.7051 19.6957 18.9409 20.6269 18.4896 21.7164C18.0383 22.8059 17.9203 24.0048 18.1503 25.1613C18.3804 26.3179 18.9482 27.3803 19.7821 28.2142C20.6159 29.048 21.6783 29.6159 22.8349 29.846C23.9915 30.076 25.1904 29.9579 26.2798 29.5067C27.3693 29.0554 28.3005 28.2912 28.9557 27.3107C29.6108 26.3302 29.9605 25.1774 29.9605 23.9981C29.9589 22.4173 29.3302 20.9017 28.2124 19.7839C27.0946 18.6661 25.579 18.0374 23.9981 18.0358ZM23.9981 27.9731C23.212 27.9731 22.4435 27.7399 21.7898 27.3032C21.1361 26.8664 20.6266 26.2456 20.3258 25.5193C20.0249 24.793 19.9462 23.9937 20.0996 23.2227C20.253 22.4516 20.6315 21.7433 21.1874 21.1874C21.7433 20.6315 22.4516 20.253 23.2227 20.0996C23.9937 19.9462 24.793 20.0249 25.5193 20.3258C26.2456 20.6266 26.8664 21.1361 27.3032 21.7898C27.7399 22.4435 27.9731 23.212 27.9731 23.9981C27.9731 25.0524 27.5543 26.0634 26.8088 26.8088C26.0634 27.5543 25.0524 27.9731 23.9981 27.9731ZM34.9292 24.2664C34.9341 24.0876 34.9341 23.9087 34.9292 23.7298L36.7825 21.4144C36.8797 21.2929 36.9469 21.1502 36.9789 20.9978C37.0108 20.8455 37.0065 20.6878 36.9663 20.5375C36.6625 19.3954 36.208 18.2989 35.6149 17.2768C35.5372 17.143 35.4294 17.0292 35.3 16.9445C35.1706 16.8597 35.0232 16.8064 34.8696 16.7886L31.9231 16.4607C31.8006 16.3315 31.6764 16.2073 31.5505 16.088L31.2027 13.1342C31.1848 12.9804 31.1312 12.8329 31.0463 12.7036C30.9613 12.5742 30.8473 12.4664 30.7133 12.3889C29.6908 11.7968 28.5943 11.3428 27.4526 11.0386C27.3021 10.9986 27.1444 10.9945 26.9921 11.0267C26.8397 11.0588 26.6971 11.1263 26.5756 11.2237L24.2664 13.0671H23.7298L21.4144 11.2175C21.2929 11.1203 21.1502 11.0531 20.9978 11.0211C20.8455 10.9892 20.6878 10.9935 20.5375 11.0337C19.3956 11.338 18.2992 11.7925 17.2768 12.3851C17.143 12.4628 17.0292 12.5706 16.9445 12.7C16.8597 12.8294 16.8064 12.9768 16.7886 13.1304L16.4607 16.0818C16.3315 16.2052 16.2073 16.3294 16.088 16.4545L13.1342 16.7936C12.9804 16.8115 12.8329 16.865 12.7036 16.95C12.5742 17.035 12.4664 17.149 12.3889 17.283C11.7968 18.3055 11.3428 19.4019 11.0386 20.5437C10.9986 20.6941 10.9945 20.8519 11.0267 21.0042C11.0588 21.1565 11.1263 21.2992 11.2237 21.4206L13.0671 23.7298V24.2664L11.2175 26.5818C11.1203 26.7034 11.0531 26.8461 11.0211 26.9984C10.9892 27.1507 10.9935 27.3084 11.0337 27.4588C11.3375 28.6008 11.792 29.6974 12.3851 30.7195C12.4628 30.8532 12.5706 30.967 12.7 31.0518C12.8294 31.1365 12.9768 31.1899 13.1304 31.2077L16.0769 31.5356C16.2002 31.6648 16.3245 31.789 16.4495 31.9082L16.7936 34.8621C16.8115 35.0159 16.865 35.1633 16.95 35.2927C17.035 35.4221 17.149 35.5299 17.283 35.6074C18.3055 36.1995 19.4019 36.6535 20.5437 36.9576C20.6941 36.9976 20.8519 37.0017 21.0042 36.9696C21.1565 36.9374 21.2992 36.8699 21.4206 36.7725L23.7298 34.9292C23.9087 34.9341 24.0876 34.9341 24.2664 34.9292L26.5818 36.7825C26.7034 36.8797 26.8461 36.9469 26.9984 36.9789C27.1507 37.0108 27.3084 37.0065 27.4588 36.9663C28.6008 36.6625 29.6974 36.208 30.7195 35.6149C30.8532 35.5372 30.967 35.4294 31.0518 35.3C31.1365 35.1706 31.1899 35.0232 31.2077 34.8696L31.5356 31.9231C31.6648 31.8006 31.789 31.6764 31.9082 31.5505L34.8621 31.2027C35.0159 31.1848 35.1633 31.1312 35.2927 31.0463C35.4221 30.9613 35.5299 30.8473 35.6074 30.7133C36.1995 29.6908 36.6535 28.5943 36.9576 27.4526C36.9976 27.3021 37.0017 27.1444 36.9696 26.9921C36.9374 26.8397 36.8699 26.6971 36.7725 26.5756L34.9292 24.2664ZM32.9293 23.459C32.9504 23.8181 32.9504 24.1781 32.9293 24.5372C32.9145 24.7831 32.9915 25.0257 33.1454 25.2179L34.9081 27.4203C34.7058 28.0631 34.4468 28.6866 34.1342 29.2835L31.3269 29.6015C31.0824 29.6287 30.8567 29.7455 30.6934 29.9295C30.4543 30.1984 30.1996 30.4531 29.9307 30.6922C29.7468 30.8555 29.6299 31.0812 29.6028 31.3257L29.291 34.1305C28.6941 34.4433 28.0706 34.7022 27.4278 34.9043L25.2242 33.1417C25.0478 33.0008 24.8288 32.9242 24.6031 32.9243H24.5434C24.1844 32.9454 23.8243 32.9454 23.4652 32.9243C23.2194 32.9095 22.9768 32.9866 22.7845 33.1405L20.576 34.9043C19.9332 34.7021 19.3097 34.4431 18.7127 34.1305L18.3947 31.3269C18.3676 31.0824 18.2508 30.8567 18.0668 30.6934C17.7979 30.4543 17.5432 30.1996 17.3041 29.9307C17.1408 29.7468 16.9151 29.6299 16.6706 29.6028L13.8658 29.2898C13.553 28.6929 13.294 28.0693 13.0919 27.4265L14.8546 25.2229C15.0085 25.0306 15.0855 24.7881 15.0707 24.5422C15.0496 24.1831 15.0496 23.8231 15.0707 23.464C15.0855 23.2182 15.0085 22.9756 14.8546 22.7833L13.0919 20.576C13.2942 19.9332 13.5532 19.3097 13.8658 18.7127L16.6694 18.3947C16.9138 18.3676 17.1396 18.2508 17.3029 18.0668C17.542 17.7979 17.7966 17.5432 18.0656 17.3041C18.2502 17.1407 18.3676 16.9145 18.3947 16.6694L18.7065 13.8658C19.3034 13.553 19.9269 13.294 20.5698 13.0919L22.7734 14.8546C22.9656 15.0085 23.2082 15.0855 23.4541 15.0707C23.8132 15.0496 24.1732 15.0496 24.5323 15.0707C24.7781 15.0855 25.0207 15.0085 25.213 14.8546L27.4203 13.0919C28.0631 13.2942 28.6866 13.5532 29.2835 13.8658L29.6015 16.6694C29.6287 16.9138 29.7455 17.1396 29.9295 17.3029C30.1984 17.542 30.4531 17.7966 30.6922 18.0656C30.8555 18.2495 31.0812 18.3664 31.3257 18.3935L34.1305 18.7053C34.4433 19.3021 34.7022 19.9257 34.9043 20.5685L33.1417 22.7721C32.9863 22.966 32.9092 23.2111 32.9256 23.459H32.9293Z" fill="white"/>
</svg>
