<svg width="100" height="1021" viewBox="0 0 100 1021" fill="none" xmlns="http://www.w3.org/2000/svg">
<mask id="path-1-inside-1_1708_2998" fill="white">
<path d="M0 0H100V1021H0V0Z"/>
</mask>
<path d="M0 0H100V1021H0V0Z" fill="white"/>
<path d="M99 0V1021H101V0H99Z" fill="#E4E4E4" mask="url(#path-1-inside-1_1708_2998)"/>
<rect x="26.5" y="912.5" width="47" height="47" rx="7.5" fill="#606060"/>
<rect x="26.5" y="912.5" width="47" height="47" rx="7.5" stroke="#606060"/>
<path d="M49.9981 930.036C48.8189 930.036 47.6661 930.385 46.6856 931.041C45.7051 931.696 44.9409 932.627 44.4896 933.716C44.0383 934.806 43.9203 936.005 44.1503 937.161C44.3804 938.318 44.9482 939.38 45.7821 940.214C46.6159 941.048 47.6783 941.616 48.8349 941.846C49.9915 942.076 51.1904 941.958 52.2798 941.507C53.3693 941.055 54.3005 940.291 54.9557 939.311C55.6108 938.33 55.9605 937.177 55.9605 935.998C55.9589 934.417 55.3302 932.902 54.2124 931.784C53.0946 930.666 51.579 930.037 49.9981 930.036ZM49.9981 939.973C49.212 939.973 48.4435 939.74 47.7898 939.303C47.1361 938.866 46.6266 938.246 46.3258 937.519C46.0249 936.793 45.9462 935.994 46.0996 935.223C46.253 934.452 46.6315 933.743 47.1874 933.187C47.7433 932.632 48.4516 932.253 49.2227 932.1C49.9937 931.946 50.793 932.025 51.5193 932.326C52.2456 932.627 52.8664 933.136 53.3032 933.79C53.7399 934.443 53.9731 935.212 53.9731 935.998C53.9731 937.052 53.5543 938.063 52.8088 938.809C52.0634 939.554 51.0524 939.973 49.9981 939.973ZM60.9292 936.266C60.9341 936.088 60.9341 935.909 60.9292 935.73L62.7825 933.414C62.8797 933.293 62.9469 933.15 62.9789 932.998C63.0108 932.846 63.0065 932.688 62.9663 932.537C62.6625 931.395 62.208 930.299 61.6149 929.277C61.5372 929.143 61.4294 929.029 61.3 928.944C61.1706 928.86 61.0232 928.806 60.8696 928.789L57.9231 928.461C57.8006 928.332 57.6764 928.207 57.5505 928.088L57.2027 925.134C57.1848 924.98 57.1312 924.833 57.0463 924.704C56.9613 924.574 56.8473 924.466 56.7133 924.389C55.6908 923.797 54.5943 923.343 53.4526 923.039C53.3021 922.999 53.1444 922.995 52.9921 923.027C52.8397 923.059 52.6971 923.126 52.5756 923.224L50.2664 925.067H49.7298L47.4144 923.218C47.2929 923.12 47.1502 923.053 46.9978 923.021C46.8455 922.989 46.6878 922.994 46.5375 923.034C45.3956 923.338 44.2992 923.792 43.2768 924.385C43.143 924.463 43.0292 924.571 42.9445 924.7C42.8597 924.829 42.8064 924.977 42.7886 925.13L42.4607 928.082C42.3315 928.205 42.2073 928.329 42.088 928.454L39.1342 928.794C38.9804 928.811 38.8329 928.865 38.7036 928.95C38.5742 929.035 38.4664 929.149 38.3889 929.283C37.7968 930.306 37.3428 931.402 37.0386 932.544C36.9986 932.694 36.9945 932.852 37.0267 933.004C37.0588 933.157 37.1263 933.299 37.2237 933.421L39.0671 935.73V936.266L37.2175 938.582C37.1203 938.703 37.0531 938.846 37.0211 938.998C36.9892 939.151 36.9935 939.308 37.0337 939.459C37.3375 940.601 37.792 941.697 38.3851 942.719C38.4628 942.853 38.5706 942.967 38.7 943.052C38.8294 943.137 38.9768 943.19 39.1304 943.208L42.0769 943.536C42.2002 943.665 42.3245 943.789 42.4495 943.908L42.7936 946.862C42.8115 947.016 42.865 947.163 42.95 947.293C43.035 947.422 43.149 947.53 43.283 947.607C44.3055 948.199 45.4019 948.654 46.5437 948.958C46.6941 948.998 46.8519 949.002 47.0042 948.97C47.1565 948.937 47.2992 948.87 47.4206 948.773L49.7298 946.929C49.9087 946.934 50.0876 946.934 50.2664 946.929L52.5818 948.782C52.7034 948.88 52.8461 948.947 52.9984 948.979C53.1507 949.011 53.3084 949.006 53.4588 948.966C54.6008 948.663 55.6974 948.208 56.7195 947.615C56.8532 947.537 56.967 947.429 57.0518 947.3C57.1365 947.171 57.1899 947.023 57.2077 946.87L57.5356 943.923C57.6648 943.801 57.789 943.676 57.9082 943.55L60.8621 943.203C61.0159 943.185 61.1633 943.131 61.2927 943.046C61.4221 942.961 61.5299 942.847 61.6074 942.713C62.1995 941.691 62.6535 940.594 62.9576 939.453C62.9976 939.302 63.0017 939.144 62.9696 938.992C62.9374 938.84 62.8699 938.697 62.7725 938.576L60.9292 936.266ZM58.9293 935.459C58.9504 935.818 58.9504 936.178 58.9293 936.537C58.9145 936.783 58.9915 937.026 59.1454 937.218L60.9081 939.42C60.7058 940.063 60.4468 940.687 60.1342 941.284L57.3269 941.602C57.0824 941.629 56.8567 941.746 56.6934 941.929C56.4543 942.198 56.1996 942.453 55.9307 942.692C55.7468 942.855 55.6299 943.081 55.6028 943.326L55.291 946.13C54.6941 946.443 54.0706 946.702 53.4278 946.904L51.2242 945.142C51.0478 945.001 50.8288 944.924 50.6031 944.924H50.5434C50.1844 944.945 49.8243 944.945 49.4652 944.924C49.2194 944.91 48.9768 944.987 48.7845 945.14L46.576 946.904C45.9332 946.702 45.3097 946.443 44.7127 946.13L44.3947 943.327C44.3676 943.082 44.2508 942.857 44.0668 942.693C43.7979 942.454 43.5432 942.2 43.3041 941.931C43.1408 941.747 42.9151 941.63 42.6706 941.603L39.8658 941.29C39.553 940.693 39.294 940.069 39.0919 939.427L40.8546 937.223C41.0085 937.031 41.0855 936.788 41.0707 936.542C41.0496 936.183 41.0496 935.823 41.0707 935.464C41.0855 935.218 41.0085 934.976 40.8546 934.783L39.0919 932.576C39.2942 931.933 39.5532 931.31 39.8658 930.713L42.6694 930.395C42.9138 930.368 43.1396 930.251 43.3029 930.067C43.542 929.798 43.7966 929.543 44.0656 929.304C44.2502 929.141 44.3676 928.914 44.3947 928.669L44.7065 925.866C45.3034 925.553 45.9269 925.294 46.5698 925.092L48.7734 926.855C48.9656 927.008 49.2082 927.086 49.4541 927.071C49.8132 927.05 50.1732 927.05 50.5323 927.071C50.7781 927.086 51.0207 927.008 51.213 926.855L53.4203 925.092C54.0631 925.294 54.6866 925.553 55.2835 925.866L55.6015 928.669C55.6287 928.914 55.7455 929.14 55.9295 929.303C56.1984 929.542 56.4531 929.797 56.6922 930.066C56.8555 930.25 57.0812 930.366 57.3257 930.393L60.1305 930.705C60.4433 931.302 60.7022 931.926 60.9043 932.569L59.1417 934.772C58.9863 934.966 58.9092 935.211 58.9256 935.459H58.9293Z" fill="white"/>
<rect x="26.5" y="66.5" width="47" height="47" rx="7.5" fill="#7849FF"/>
<path d="M38 102V86L50 78L62 86V102H53V92.6667H47V102H38Z" fill="white"/>
<rect x="26.5" y="66.5" width="47" height="47" rx="7.5" stroke="#7849FF"/>
</svg>
