<svg width="82" height="82" viewBox="0 0 82 82" fill="none" xmlns="http://www.w3.org/2000/svg">
<path d="M37.5835 58.0835H44.4168V44.4168H58.0835V37.5835H44.4168V23.9168H37.5835V37.5835H23.9168V44.4168H37.5835V58.0835ZM41.0002 75.1668C36.2738 75.1668 31.8321 74.2694 27.6752 72.4745C23.5182 70.6796 19.9022 68.2458 16.8272 65.1731C13.7522 62.0981 11.3184 58.4821 9.52583 54.3252C7.73322 50.1682 6.83577 45.7265 6.8335 41.0002C6.8335 36.2738 7.73094 31.8321 9.52583 27.6752C11.3207 23.5182 13.7545 19.9022 16.8272 16.8272C19.9022 13.7522 23.5182 11.3184 27.6752 9.52583C31.8321 7.73322 36.2738 6.83577 41.0002 6.8335C45.7265 6.8335 50.1682 7.73094 54.3252 9.52583C58.4821 11.3207 62.0981 13.7545 65.1731 16.8272C68.2481 19.9022 70.683 23.5182 72.4779 27.6752C74.2728 31.8321 75.1691 36.2738 75.1668 41.0002C75.1668 45.7265 74.2694 50.1682 72.4745 54.3252C70.6796 58.4821 68.2458 62.0981 65.1731 65.1731C62.0981 68.2481 58.4821 70.683 54.3252 72.4779C50.1682 74.2728 45.7265 75.1691 41.0002 75.1668Z" fill="#3385FF"/>
</svg>
