<svg width="82" height="82" viewBox="0 0 82 82" fill="none" xmlns="http://www.w3.org/2000/svg">
<path d="M37.583 58.083H44.4163V44.4163H58.083V37.583H44.4163V23.9163H37.583V37.583H23.9163V44.4163H37.583V58.083ZM40.9997 75.1663C36.2733 75.1663 31.8316 74.2689 27.6747 72.474C23.5177 70.6791 19.9018 68.2453 16.8268 65.1726C13.7518 62.0976 11.318 58.4816 9.52534 54.3247C7.73273 50.1677 6.83529 45.7261 6.83301 40.9997C6.83301 36.2733 7.73045 31.8316 9.52534 27.6747C11.3202 23.5177 13.754 19.9018 16.8268 16.8268C19.9018 13.7518 23.5177 11.318 27.6747 9.52534C31.8316 7.73273 36.2733 6.83529 40.9997 6.83301C45.7261 6.83301 50.1677 7.73045 54.3247 9.52534C58.4816 11.3202 62.0976 13.754 65.1726 16.8268C68.2476 19.9018 70.6825 23.5177 72.4774 27.6747C74.2723 31.8316 75.1686 36.2733 75.1663 40.9997C75.1663 45.7261 74.2689 50.1677 72.474 54.3247C70.6791 58.4816 68.2453 62.0976 65.1726 65.1726C62.0976 68.2476 58.4816 70.6825 54.3247 72.4774C50.1677 74.2723 45.7261 75.1686 40.9997 75.1663Z" fill="#3385FF"/>
</svg>
